<?xml version="1.0" encoding="UTF-8"?>
<svg width="119px" height="28px" viewBox="0 0 119 28" version="1.1" xmlns="http://www.w3.org/2000/svg" xmlns:xlink="http://www.w3.org/1999/xlink">
    <!-- Generator: Sketch 59.1 (86144) - https://sketch.com -->
    <title>Group 26</title>
    <desc>Created with Sketch.</desc>
    <defs>
        <polygon id="path-1" points="0.168 0.304 11.4 0.304 11.4 11.13584 0.168 11.13584"></polygon>
        <polygon id="path-3" points="0 0.12808 6.984 0.12808 6.984 21.6 0 21.6"></polygon>
        <polygon id="path-5" points="0 0.12808 6.984 0.12808 6.984 21.6 0 21.6"></polygon>
    </defs>
    <g id="Final" stroke="none" stroke-width="1" fill="none" fill-rule="evenodd">
        <g id="Home-Business-Coach" transform="translate(-900.000000, -28.000000)">
            <g id="Group-26" transform="translate(900.000000, 28.000000)">
                <path d="M20.91992,20.65608 L14.51992,20.60728 C11.58952,20.57688 9.23752,18.17848 9.26392,15.24808 L9.26392,13.64808 L15.66392,13.69608 C18.59752,13.72248 20.95432,16.12168 20.92792,19.05528 L20.92792,19.08008 L20.91992,20.65608 Z" id="Fill-1" fill="#EC6437"></path>
                <g id="Group-5" transform="translate(6.400000, 0.496000)">
                    <mask id="mask-2" fill="white">
                        <use xlink:href="#path-1"></use>
                    </mask>
                    <g id="Clip-4"></g>
                    <path d="M5.784,0.30384 C8.8856,0.30384 11.4,2.72864 11.4,5.71984 C11.4,8.71104 8.8856,11.13584 5.784,11.13584 C2.6824,11.13584 0.168,8.71104 0.168,5.71984 C0.168,2.72864 2.6824,0.30384 5.784,0.30384" id="Fill-3" fill="#EC6437" mask="url(#mask-2)"></path>
                </g>
                <path d="M37.39216,6.88816 L32.80016,6.88816 L32.80016,12.92816 L41.20016,12.92816 C41.20016,15.17696 39.37696,17.00016 37.12816,17.00016 L37.12016,17.00016 L32.80016,17.00016 L32.80016,21.71216 C32.80016,23.96096 30.97696,25.78416 28.72816,25.78416 L28.56016,25.78416 L28.56016,2.81616 L41.47216,2.81616 C41.46736,5.06656 39.64256,6.88816 37.39216,6.88816" id="Fill-6" fill="#2F2F30"></path>
                <path d="M48.8,20.68032 C49.5832,21.47952 50.6656,21.91552 51.784,21.88032 C52.904,21.90912 53.9864,21.47552 54.776,20.68032 C55.5624,19.86992 55.9864,18.77632 55.952,17.64832 C55.9872,16.50592 55.5504,15.40032 54.744,14.59232 C53.9576,13.79152 52.8736,13.35392 51.752,13.38352 C50.6464,13.35392 49.5784,13.78192 48.8,14.56752 C47.9848,15.38192 47.5448,16.49712 47.584,17.64832 C47.5616,18.78192 48,19.87552 48.8,20.68032 M57.552,23.40752 C54.3776,26.60672 49.2112,26.62672 46.012,23.45232 C44.4656,21.91712 43.5968,19.82752 43.5999912,17.64832 C43.6288,13.11952 47.3232,9.47152 51.852,9.50032 C53.9856,9.51392 56.0312,10.35872 57.552,11.85632 C59.1216,13.36912 59.9912,15.46752 59.952,17.64832 C59.9824,19.81712 59.1136,21.90192 57.552,23.40752" id="Fill-8" fill="#2F2F30"></path>
                <path d="M62.74376,25.33576 L62.74376,6.78376 C62.74376,4.57496 64.53496,2.78376 66.74376,2.78376 L66.74376,21.34456 C66.74376,23.55256 64.95336,25.34456 62.74376,25.34456 L62.74376,25.33576 Z" id="Fill-10" fill="#2F2F30"></path>
                <path d="M70.4,25.33576 L70.4,13.88776 C70.4,11.67896 72.1904,9.88776 74.4,9.88776 L74.4,21.35976 C74.4,23.56936 72.6096,25.35976 70.4,25.35976 L70.4,25.33576 Z M72.344,8.04776 C71.6968,8.05576 71.076,7.79176 70.632,7.31976 C70.1704,6.88616 69.9072,6.28136 69.9039927,5.64776 C69.9024,4.99736 70.1648,4.37336 70.632,3.91976 C71.0728,3.44296 71.6944,3.17496 72.344,3.18376 C73.0032,3.17336 73.636,3.44056 74.088,3.91976 C74.5544,4.37336 74.8176,4.99736 74.8160288,5.64776 C74.8192,6.29496 74.556,6.91416 74.088,7.35976 C73.624,7.81656 72.9944,8.06456 72.344,8.04776 L72.344,8.04776 Z" id="Fill-12" fill="#2F2F30"></path>
                <path d="M92.16016,9.90416 L92.16016,9.90416 L92.16016,21.77536 C92.16016,23.98496 90.36896,25.77536 88.16016,25.77536 L88.16016,23.60736 C87.11376,25.08816 85.36656,25.90816 83.56016,25.76816 C81.99296,25.80736 80.48096,25.18256 79.40016,24.04816 C78.23936,22.77216 77.64176,21.08176 77.74336,19.36016 L77.74336,13.88816 C77.74336,11.67856 79.53536,9.88816 81.74336,9.88816 L81.74336,18.88816 C81.68016,19.75056 81.96976,20.60176 82.54336,21.24816 C83.14736,21.80336 83.94896,22.09136 84.76816,22.04816 C85.68896,22.09056 86.58496,21.74496 87.24016,21.09616 C87.91216,20.29696 88.24496,19.26576 88.16816,18.22416 L88.16816,13.88816 C88.17696,11.68816 89.96016,9.90816 92.16016,9.90416" id="Fill-14" fill="#2F2F30"></path>
                <path d="M112.87968,9.47216 C114.47968,9.40256 116.03008,10.03376 117.12848,11.20016 C118.23648,12.48096 118.80928,14.13936 118.72848,15.83216 L118.72848,25.75216 C116.51888,25.75216 114.72848,23.96096 114.72848,21.75216 L114.72848,16.10416 C114.77168,15.32496 114.53008,14.55696 114.04768,13.94416 C113.56288,13.39936 112.85648,13.10496 112.12848,13.14416 C111.32368,13.10016 110.54368,13.43136 110.01568,14.04016 C109.46448,14.78736 109.19728,15.70576 109.26368,16.63216 L109.26368,25.75216 C107.05488,25.75216 105.26368,23.96096 105.26368,21.75216 L105.26368,16.10416 C105.30768,15.32496 105.06608,14.55696 104.58448,13.94416 C104.10048,13.40176 103.39728,13.10736 102.67168,13.14416 C101.86608,13.10816 101.08848,13.43776 100.55248,14.04016 C99.97328,14.77536 99.68848,15.69936 99.75248,16.63216 L99.75248,25.75216 C97.54288,25.75216 95.75248,23.96096 95.75248,21.75216 L95.75248,13.88816 C95.75248,11.67856 97.54288,9.88816 99.75248,9.88816 L99.75248,11.48816 C100.71568,10.08976 102.34608,9.30576 104.03968,9.42416 C105.74608,9.31936 107.36688,10.17776 108.23968,11.64816 C109.29968,10.16176 111.05968,9.33696 112.87968,9.47216" id="Fill-16" fill="#2F2F30"></path>
                <g id="Group-20" transform="translate(0.000000, 6.096000)">
                    <mask id="mask-4" fill="white">
                        <use xlink:href="#path-3"></use>
                    </mask>
                    <g id="Clip-19"></g>
                    <path d="M0,0.12808 L0,0.12808 C3.8568,0.12808 6.984,3.25528 6.984,7.11208 L6.984,21.60008 C3.1272,21.60008 0,18.47368 0,14.61608 L0,0.12808 Z" id="Fill-18" fill="#9C5AFB" mask="url(#mask-4)"></path>
                </g>
                <g id="Group-23" transform="translate(0.000000, 6.096000)">
                    <mask id="mask-6" fill="white">
                        <use xlink:href="#path-5"></use>
                    </mask>
                    <g id="Clip-22"></g>
                    <path d="M0,0.12808 L0,0.12808 C3.8568,0.12808 6.984,3.25528 6.984,7.11208 L6.984,21.60008 C3.1272,21.60008 0,18.47368 0,14.61608 L0,0.12808 Z" id="Fill-21" fill="#EC6437" mask="url(#mask-6)"></path>
                </g>
                <path d="M0,6.22408 L0,12.99208 C1.4808,15.79288 3.9808,17.91848 6.984,18.92808 L6.984,13.20808 C6.984,9.35128 3.8568,6.22408 0,6.22408" id="Fill-24" fill="#EC6437"></path>
            </g>
        </g>
    </g>
</svg>